<svg width="50" height="50" viewBox="0 0 50 50" fill="none" xmlns="http://www.w3.org/2000/svg">
<path d="M25 33.6667C29.7865 33.6667 33.6667 29.7865 33.6667 25C33.6667 20.2136 29.7865 16.3334 25 16.3334C20.2135 16.3334 16.3333 20.2136 16.3333 25C16.3333 29.7865 20.2135 33.6667 25 33.6667Z" stroke="url(#paint0_linear)" stroke-width="5" stroke-linecap="round" stroke-linejoin="round"/>
<path d="M33.6667 16.3334V27.1667C33.6667 28.8906 34.3515 30.5439 35.5705 31.7629C36.7895 32.9819 38.4428 33.6667 40.1667 33.6667C41.8906 33.6667 43.5439 32.9819 44.7629 31.7629C45.9819 30.5439 46.6667 28.8906 46.6667 27.1667V25C46.6664 20.1099 45.0118 15.3637 41.9721 11.5332C38.9324 7.70264 34.6862 5.01303 29.9241 3.90168C25.1619 2.79034 20.1639 3.32263 15.7426 5.412C11.3213 7.50137 7.73686 11.0249 5.57206 15.4098C3.40726 19.7946 2.78943 24.7828 3.81903 29.5633C4.84863 34.3438 7.46512 38.6354 11.243 41.7403C15.0209 44.8452 19.7381 46.5808 24.6275 46.6649C29.5169 46.7489 34.2909 45.1766 38.1733 42.2034" stroke="url(#paint1_linear)" stroke-width="5" stroke-linecap="round" stroke-linejoin="round"/>
<defs>
<linearGradient id="paint0_linear" x1="44.5" y1="11.5667" x2="13.3" y2="33.6667" gradientUnits="userSpaceOnUse">
<stop stop-color="#26B5B3"/>
<stop offset="0.5" stop-color="#4C83E7"/>
<stop offset="1" stop-color="#7F2FE0"/>
</linearGradient>
<linearGradient id="paint1_linear" x1="73.75" y1="-8.58196" x2="-4.25002" y2="46.6681" gradientUnits="userSpaceOnUse">
<stop stop-color="#26B5B3"/>
<stop offset="0.5" stop-color="#4C83E7"/>
<stop offset="1" stop-color="#7F2FE0"/>
</linearGradient>
</defs>
</svg>

