<svg width="22" height="32" viewBox="0 0 22 32" fill="none" xmlns="http://www.w3.org/2000/svg">
<path d="M5.74999 32C8.64799 32 11 29.6106 11 26.6666V21.3333H5.74999C2.852 21.3333 0.5 23.7226 0.5 26.6666C0.5 29.6106 2.852 32 5.74999 32Z" fill="#0ACE82"/>
<path d="M0.5 15.9999C0.5 13.0559 2.852 10.6666 5.74999 10.6666H11V21.3331H5.74999C2.852 21.3331 0.5 18.9438 0.5 15.9999Z" fill="#A259FF"/>
<path d="M0.500488 5.33331C0.500488 2.38932 2.85248 0 5.75048 0H11.0005V10.6666H5.75048C2.85248 10.6666 0.500488 8.2773 0.500488 5.33331Z" fill="#F34E1E"/>
<path d="M11 0H16.25C19.148 0 21.5 2.38932 21.5 5.33331C21.5 8.2773 19.148 10.6666 16.25 10.6666H11V0Z" fill="#FF7261"/>
<path d="M21.5 15.9999C21.5 18.9438 19.148 21.3331 16.25 21.3331C13.352 21.3331 11 18.9438 11 15.9999C11 13.0559 13.352 10.6666 16.25 10.6666C19.148 10.6666 21.5 13.0559 21.5 15.9999Z" fill="#1ABCFD"/>
</svg>
