<svg width="47" height="46" viewBox="0 0 50 46" fill="none" xmlns="http://www.w3.org/2000/svg">
<path d="M45.5874 20.9295L25.5215 0.865979C24.3649 -0.28866 22.4922 -0.28866 21.3318 0.865979L17.1746 5.03072L22.4597 10.3156C23.6947 9.90394 25.1003 10.1816 26.0768 11.1601C27.0649 12.1462 27.3368 13.5689 26.9155 14.7982L32.0052 19.8917C33.2403 19.4647 34.6612 19.7423 35.6435 20.7246C37.0241 22.1033 37.0241 24.3321 35.6435 25.7108C34.2667 27.0876 32.0416 27.0876 30.6648 25.7108C29.6327 24.6749 29.3742 23.1507 29.8912 21.8888L25.1251 17.1477V29.6419C25.4622 29.8066 25.78 30.0307 26.0596 30.3083C27.4249 31.6889 27.4249 33.9139 26.0596 35.2868C24.6828 36.6674 22.4424 36.6674 21.0637 35.2868C19.6869 33.9101 19.6869 31.6889 21.0637 30.3121C21.4122 29.9675 21.8048 29.707 22.2222 29.5347V16.9179C21.8067 16.7437 21.4103 16.4929 21.0733 16.1501C20.0297 15.1065 19.7788 13.5804 20.315 12.3032L15.1219 7.08533L1.36169 20.8357C0.21277 21.9941 0.21277 23.8687 1.36169 25.0272L21.4295 45.0888C22.586 46.2454 24.4588 46.2454 25.6153 45.0888L45.5874 25.1172C46.7459 23.9626 46.7459 22.088 45.5874 20.9295Z" fill="url(#paint0_linear)"/>
<defs>
<linearGradient id="paint0_linear" x1="0.5" y1="22.9781" x2="46.4562" y2="22.9781" gradientUnits="userSpaceOnUse">
<stop stop-color="#4776E6"/>
<stop offset="1" stop-color="#8E54E9"/>
</linearGradient>
</defs>
</svg>
