<svg width="25" height="24" viewBox="0 0 25 24" fill="none" xmlns="http://www.w3.org/2000/svg">
<rect x="4" y="7" width="17" height="10" fill="#F6F6F6"/>
<path d="M12.5277 0C5.46976 0 0 4.95219 0 11.6411C0 15.1396 1.49748 18.163 3.93498 20.2515C4.35585 20.6149 4.26915 20.8254 4.34073 23.0692C4.34636 23.2264 4.39197 23.3799 4.47356 23.5162C4.55516 23.6526 4.67027 23.7677 4.80885 23.8516C4.94744 23.9354 5.10529 23.9854 5.26863 23.9973C5.43197 24.0091 5.59585 23.9824 5.74597 23.9194C8.4128 22.792 8.44708 22.7029 8.89919 22.821C16.6255 24.8626 25 20.1155 25 11.6411C25 4.95219 19.5862 0 12.5277 0ZM20.0499 8.95836L16.3705 14.5507C16.2315 14.761 16.0488 14.9415 15.8338 15.0808C15.6189 15.2202 15.3762 15.3154 15.1211 15.3605C14.866 15.4056 14.604 15.3997 14.3514 15.343C14.0988 15.2863 13.8611 15.1802 13.6532 15.0313L10.7258 12.9278C10.5949 12.8335 10.4358 12.7826 10.2722 12.7826C10.1086 12.7826 9.94942 12.8335 9.81855 12.9278L5.86845 15.804C5.34123 16.1878 4.65071 15.5814 5.00605 15.0458L8.68548 9.45339C8.82438 9.24304 9.00704 9.06251 9.22202 8.92313C9.43701 8.78374 9.67967 8.68851 9.93479 8.64339C10.1899 8.59828 10.452 8.60426 10.7046 8.66095C10.9572 8.71765 11.1949 8.82385 11.4027 8.97288L14.3291 11.0759C14.46 11.1701 14.6192 11.2211 14.7828 11.2211C14.9463 11.2211 15.1055 11.1701 15.2364 11.0759L19.1885 8.20252C19.7147 7.81637 20.4052 8.4222 20.0499 8.95836Z" fill="url(#paint0_linear)"/>
<defs>
<linearGradient id="paint0_linear" x1="40.625" y1="-6.6" x2="-3.13136" y2="25.6855" gradientUnits="userSpaceOnUse">
<stop stop-color="#26B5B3"/>
<stop offset="0.5" stop-color="#4C83E7"/>
<stop offset="1" stop-color="#7F2FE0"/>
</linearGradient>
</defs>
</svg>
