<svg width="23" height="14" viewBox="0 0 23 14" fill="none" xmlns="http://www.w3.org/2000/svg">
<path d="M15.8038 0C15.6873 0 15.5806 0.0894888 15.5806 0.213995V4.12427L14.6561 3.60734C14.5983 3.57462 14.533 3.55871 14.4677 3.55871C14.4025 3.55871 14.3372 3.57462 14.2794 3.60734L12.0579 4.84963C11.9422 4.91366 11.871 5.03215 11.871 5.1595V7.64685C11.871 7.77491 11.9422 7.89269 12.0579 7.95672L14.2794 9.19901C14.3372 9.23173 14.4025 9.24764 14.4677 9.24764C14.533 9.24764 14.5983 9.23174 14.6561 9.19901L16.8776 7.95672C16.9933 7.89269 17.0645 7.7742 17.0645 7.64685V6.40318V5.1595V0.875434C17.0645 0.748794 16.994 0.632369 16.8805 0.568337L15.9139 0.0291811C15.8776 0.00926015 15.8409 0 15.8038 0ZM8.53226 3.55871C8.46715 3.55871 8.40212 3.57497 8.34388 3.60734L6.12242 4.84963C6.00667 4.91366 5.93548 5.03215 5.93548 5.1595V7.64685C5.93548 7.77491 6.00667 7.89269 6.12242 7.95672L8.34388 9.19901C8.46036 9.26375 8.60416 9.26375 8.72064 9.19901L10.9421 7.95672C11.0578 7.89269 11.129 7.7742 11.129 7.64685V5.1595C11.129 5.03144 11.0578 4.91366 10.9421 4.84963L8.72064 3.60734C8.6624 3.57497 8.59736 3.55871 8.53226 3.55871ZM20.4032 3.55871C20.3379 3.55871 20.2727 3.57462 20.2148 3.60734L17.9934 4.84963C17.8776 4.91366 17.8065 5.03215 17.8065 5.1595V7.64685C17.8065 7.77491 17.8776 7.89269 17.9934 7.95672L20.1482 9.20596C20.2639 9.27354 20.4092 9.27419 20.5264 9.20873L21.5857 8.61816C21.6955 8.55769 21.6962 8.40492 21.5857 8.34303L19.2903 7.04655V5.76953L20.4032 5.14839L21.5161 5.76953V6.65886C21.5161 6.77767 21.6203 6.79597 21.69 6.75613C21.9705 6.59818 22.816 6.12804 22.816 6.12804C22.9295 6.06472 23 5.94758 23 5.82094V5.1595C23 5.03144 22.9288 4.91366 22.8131 4.84963L20.5916 3.60734C20.533 3.57462 20.4685 3.55871 20.4032 3.55871ZM2.59677 3.5601C2.53148 3.5601 2.46626 3.57601 2.40839 3.60873L0.186933 4.84963C0.071191 4.91437 0 5.03283 0 5.16089V8.33608C0 8.49118 0.174969 8.58733 0.314453 8.50978L1.29984 7.9595C1.41335 7.89547 1.48387 7.77905 1.48387 7.65241V5.77231L2.59677 5.14978L3.70968 5.77231V7.65241C3.70968 7.77905 3.7802 7.89547 3.89371 7.9595L4.8791 8.50978C5.01858 8.58804 5.19355 8.49118 5.19355 8.33608V5.16089C5.19355 5.03283 5.12236 4.91437 5.00662 4.84963L2.78516 3.60873C2.72729 3.57601 2.66206 3.5601 2.59677 3.5601ZM14.4677 5.14839L15.5806 5.77092V6.40318V7.03543L14.4677 7.65797L13.3548 7.03543V5.77092L14.4677 5.14839ZM20.4032 5.69449L19.7671 6.05022V6.7603L20.4032 7.11464L21.0394 6.7603V6.05022L20.4032 5.69449ZM11.4304 8.53618C11.3541 8.53618 11.277 8.55409 11.2102 8.59037L9.12349 9.7465C8.98623 9.81907 8.90323 9.96188 8.90323 10.1106V12.4201C8.90323 12.5687 8.98994 12.7087 9.12349 12.7841L9.67269 13.0843C9.93608 13.2088 10.0329 13.2093 10.1523 13.2093C10.5456 13.2093 10.7697 12.9838 10.7697 12.5854V10.3037C10.7697 10.2689 10.7414 10.244 10.7088 10.244H10.4451C10.4087 10.244 10.3827 10.2724 10.3827 10.3037V12.5854C10.3827 12.7583 10.1922 12.9356 9.88136 12.7869L9.31042 12.4715C9.29187 12.4608 9.27854 12.4393 9.27854 12.4187V10.1092C9.27854 10.0885 9.2889 10.0643 9.31042 10.0536L11.3971 8.90025C11.4194 8.88958 11.4445 8.88958 11.4623 8.90025L13.5505 10.0536C13.572 10.0643 13.5823 10.085 13.5823 10.1092V12.4187C13.5823 12.4429 13.5683 12.4636 13.5505 12.4742L11.4623 13.6318C11.4438 13.6424 11.4149 13.6424 11.3971 13.6318L10.8638 13.3274C10.8498 13.3203 10.8272 13.3162 10.8131 13.3233C10.6655 13.4065 10.6359 13.4174 10.4987 13.4622C10.4623 13.4729 10.4129 13.4943 10.5175 13.5498L11.2102 13.9444C11.2792 13.9793 11.3548 14 11.4304 14C11.5098 14 11.587 13.9793 11.6478 13.9416L13.7345 12.7841C13.8718 12.7116 13.9548 12.5687 13.9548 12.4201V10.1106C13.9548 9.96188 13.868 9.82263 13.7345 9.7465L11.6478 8.59037C11.5829 8.55409 11.5068 8.53618 11.4304 8.53618ZM14.6851 9.60199C14.4722 9.60199 14.2852 9.76709 14.2852 9.98551C14.2852 10.1968 14.4648 10.3704 14.6851 10.3704C14.9055 10.3704 15.0851 10.1968 15.0851 9.98551C15.0851 9.76709 14.9018 9.59843 14.6851 9.60199ZM14.6808 9.66313C14.8692 9.66313 15.0213 9.80551 15.0213 9.98551C15.0213 10.162 14.8685 10.3078 14.6808 10.3121C14.496 10.3121 14.346 10.1655 14.346 9.98551C14.346 9.80551 14.4968 9.66313 14.6808 9.66313ZM14.5344 9.76735V10.1995H14.6199V10.0272H14.6996C14.7322 10.0272 14.74 10.0405 14.7474 10.0647C14.7474 10.0683 14.7611 10.1803 14.7648 10.2009H14.8575C14.8472 10.1803 14.8395 10.1211 14.8358 10.0856C14.8254 10.0301 14.822 9.99185 14.7605 9.98829C14.7931 9.97762 14.8474 9.96097 14.8474 9.88129C14.8474 9.76674 14.7436 9.76735 14.6895 9.76735H14.5344ZM14.6199 9.83682H14.6924C14.7146 9.83682 14.7576 9.83613 14.7576 9.89519C14.7576 9.91938 14.7466 9.95843 14.688 9.95772H14.6199V9.83682ZM11.9898 10.1898C11.394 10.1898 11.0406 10.4333 11.0406 10.8345C11.0406 11.2742 11.3946 11.3919 11.9652 11.4473C12.6477 11.5128 12.7013 11.6069 12.7013 11.735C12.7013 11.9598 12.5131 12.0532 12.0724 12.0532C11.5196 12.0532 11.3981 11.9218 11.358 11.6586C11.3543 11.6308 11.3283 11.6099 11.2957 11.6099H11.0247C10.9921 11.6099 10.9638 11.6348 10.9638 11.6697C10.9638 12.0055 11.1547 12.4075 12.068 12.4075C12.738 12.4068 13.1172 12.1579 13.1172 11.7211C13.1172 11.2885 12.8134 11.1735 12.1709 11.0902C11.521 11.007 11.4565 10.9651 11.4565 10.8193C11.4565 10.6983 11.5098 10.54 11.9898 10.54C12.4194 10.54 12.5795 10.63 12.6448 10.9068C12.6522 10.9345 12.6724 10.9513 12.7013 10.9513H12.9723C12.9901 10.9513 13.0054 10.9446 13.0158 10.9346C13.0269 10.9211 13.034 10.9072 13.0302 10.8901C12.9872 10.412 12.6583 10.1898 11.9898 10.1898Z" fill="url(#paint0_linear_2_3)"/>
<defs>
<linearGradient id="paint0_linear_2_3" x1="1.05969e-08" y1="7" x2="22.4926" y2="6.52925" gradientUnits="userSpaceOnUse">
<stop stop-color="#4776E6"/>
<stop offset="1" stop-color="#8E54E9"/>
</linearGradient>
</defs>
</svg>
