<svg width="33" height="32" viewBox="0 0 33 32" fill="none" xmlns="http://www.w3.org/2000/svg">
<path d="M0.5 0H32.5V32H0.5V0Z" fill="#06C7FF"/>
<path d="M3.04437 2.54474H29.9546V29.4554H3.04437V2.54474Z" fill="url(#paint0_linear)"/>
<path d="M8.23253 9.01897C8.23253 9.01897 10.2558 8.96484 11.9213 8.96484C13.6043 8.96484 14.8043 9.3675 15.6099 10.0751C16.3799 10.7437 16.8992 11.8836 16.8992 13.1811C16.8992 14.4787 16.5052 15.5404 15.7888 16.287C14.8577 17.2503 13.7727 17.8206 11.9213 17.8994C11.4098 17.9212 10.9364 17.9264 10.9364 17.9264V22.1444H8.23242L8.23253 9.01897ZM10.9363 15.5896C11.2301 15.6187 11.4142 15.6047 11.8496 15.5994C13.3 15.5817 14.1951 14.6847 14.1951 13.3282C14.1951 12.1096 13.4571 11.1091 12.0646 11.0572C11.5096 11.0366 10.9363 11.0572 10.9363 11.0572V15.5896Z" fill="#06C7FF"/>
<path d="M17.9311 19.206C18.476 19.546 19.762 20.0553 20.6386 20.0553C21.5342 20.0553 21.904 19.7344 21.904 19.234C21.904 18.7329 21.6119 18.2066 20.5018 17.8261C18.535 17.1449 17.7754 16.3296 17.7952 15.1885C17.7952 13.3454 19.3139 11.9634 21.6702 11.9634C22.7801 11.9634 23.6669 12.3324 24.2505 12.6327V14.8447C23.8217 14.6041 22.5854 14.0669 21.7677 14.0669C21.0467 14.0669 20.6381 14.3674 20.6381 14.8677C20.6381 15.3285 21.0083 15.5689 22.1766 15.9898C23.9873 16.6307 24.7469 17.5718 24.7661 19.014C24.7661 20.8369 23.3843 22.2865 20.6381 22.1985C19.6955 22.1683 18.6514 21.7894 17.9309 21.3894L17.9311 19.206Z" fill="#06C7FF"/>
<defs>
<linearGradient id="paint0_linear" x1="12.6301" y1="2.92397" x2="19.7801" y2="26.2884" gradientUnits="userSpaceOnUse">
<stop stop-color="#090058"/>
<stop offset="1" stop-color="#070033"/>
</linearGradient>
</defs>
</svg>
