<svg width="24" height="22" viewBox="0 0 24 22" fill="none" xmlns="http://www.w3.org/2000/svg">
<path d="M12 9C10.895 9 10 9.895 10 11C10 12.105 10.895 13 12 13C13.105 13 14 12.105 14 11C14 9.895 13.105 9 12 9Z" fill="url(#paint0_linear)"/>
<path d="M12 6.75C18.257 6.75 22.25 9.267 22.25 11C22.25 11.879 21.298 12.88 19.703 13.677C17.704 14.677 14.896 15.25 12 15.25C5.743 15.25 1.75 12.733 1.75 11C1.75 10.121 2.702 9.12 4.297 8.323C6.296 7.323 9.104 6.75 12 6.75ZM12 5C5.373 5 0 7.686 0 11C0 14.314 5.373 17 12 17C18.627 17 24 14.314 24 11C24 7.686 18.627 5 12 5Z" fill="url(#paint1_linear)"/>
<path d="M7.679 1.931C9.615 1.931 13.077 4.365 15.681 8.875C17.129 11.383 18.037 14.101 18.17 16.332C18.277 18.112 17.886 19.437 17.125 19.877C16.9 20.007 16.638 20.07 16.321 20.07C14.385 20.07 10.923 17.636 8.319 13.126C6.871 10.618 5.963 7.9 5.83 5.669C5.723 3.889 6.114 2.564 6.875 2.124C7.1 1.994 7.362 1.931 7.679 1.931ZM7.679 0.181C7.068 0.181 6.502 0.318999 6 0.607999C3.13 2.265 3.49 8.261 6.804 14C9.539 18.737 13.432 21.819 16.322 21.819C16.933 21.819 17.499 21.681 18.001 21.392C20.871 19.735 20.511 13.739 17.197 8C14.461 3.263 10.568 0.181 7.679 0.181Z" fill="url(#paint2_linear)"/>
<path d="M16.321 1.931C16.637 1.931 16.9 1.994 17.125 2.124C17.886 2.563 18.277 3.889 18.17 5.669C18.036 7.9 17.129 10.618 15.681 13.126C13.077 17.637 9.615 20.07 7.679 20.07C7.363 20.07 7.1 20.007 6.875 19.877C6.114 19.438 5.723 18.112 5.83 16.332C5.964 14.101 6.871 11.383 8.319 8.875C10.924 4.364 14.386 1.931 16.321 1.931ZM16.321 0.181C13.431 0.181 9.539 3.263 6.803 8C3.49 13.74 3.13 19.735 6 21.392C6.501 21.681 7.067 21.819 7.679 21.819C10.569 21.819 14.461 18.737 17.197 14C20.51 8.26 20.87 2.265 18 0.607999C17.499 0.317999 16.933 0.181 16.321 0.181Z" fill="url(#paint3_linear)"/>
<defs>
<linearGradient id="paint0_linear" x1="-2.5" y1="18.9781" x2="37.3865" y2="18.9781" gradientUnits="userSpaceOnUse">
<stop stop-color="#4776E6"/>
<stop offset="1" stop-color="#8E54E9"/>
</linearGradient>
<linearGradient id="paint1_linear" x1="-2.5" y1="18.9781" x2="37.3865" y2="18.9781" gradientUnits="userSpaceOnUse">
<stop stop-color="#4776E6"/>
<stop offset="1" stop-color="#8E54E9"/>
</linearGradient>
<linearGradient id="paint2_linear" x1="-2.5" y1="18.9781" x2="37.3865" y2="18.9781" gradientUnits="userSpaceOnUse">
<stop stop-color="#4776E6"/>
<stop offset="1" stop-color="#8E54E9"/>
</linearGradient>
<linearGradient id="paint3_linear" x1="-2.5" y1="18.9781" x2="37.3865" y2="18.9781" gradientUnits="userSpaceOnUse">
<stop stop-color="#4776E6"/>
<stop offset="1" stop-color="#8E54E9"/>
</linearGradient>
</defs>
</svg>
