<svg width="24" height="24" viewBox="0 0 24 24" fill="none" xmlns="http://www.w3.org/2000/svg">
<path d="M11.52 0.960007C8.07936 0.960007 5.28 4.94032 5.28 9.83345C5.28 12.3612 6.03117 14.6374 7.22906 16.2525C7.18392 16.495 7.19271 16.7444 7.25481 16.983C7.31691 17.2217 7.43079 17.4438 7.58837 17.6335C7.74595 17.8232 7.94336 17.9759 8.16659 18.0807C8.38981 18.1855 8.63338 18.2399 8.88 18.24C9.32556 18.24 9.75288 18.063 10.0679 17.7479C10.383 17.4329 10.56 17.0056 10.56 16.56C10.56 16.1144 10.383 15.6871 10.0679 15.3721C9.75288 15.057 9.32556 14.88 8.88 14.88C8.78855 14.8807 8.69731 14.8888 8.60718 14.9044C7.74891 13.6259 7.2 11.8135 7.2 9.83345C7.2 6.064 9.17856 2.88001 11.52 2.88001C13.4971 2.88001 15.2108 5.15401 15.6975 8.13001C16.3801 8.32585 17.06 8.59078 17.7262 8.91095C17.4008 4.44982 14.7418 0.960007 11.52 0.960007ZM10.8 8.16001C10.3544 8.16001 9.92712 8.33701 9.61206 8.65207C9.297 8.96713 9.12 9.39444 9.12 9.84001C9.12 10.2856 9.297 10.7129 9.61206 11.0279C9.92712 11.343 10.3544 11.52 10.8 11.52C11.114 11.5198 11.4218 11.4316 11.6882 11.2654C11.9547 11.0992 12.1692 10.8617 12.3075 10.5797C13.8674 10.482 15.6701 10.9633 17.3344 11.9606C20.6272 13.9349 22.4178 17.3871 21.2437 19.4991C20.8578 20.1932 20.1626 20.6923 19.2328 20.9409C17.8941 21.299 16.2524 21.117 14.6353 20.4666C14.1222 20.9437 13.558 21.3916 12.9422 21.8034C14.5396 22.6103 16.229 23.0381 17.79 23.0381C18.4668 23.0381 19.1201 22.9585 19.7297 22.7953C21.173 22.4089 22.2772 21.5916 22.9219 20.4319C24.6422 17.3364 22.6214 12.892 18.3216 10.3144C16.2756 9.08731 14.0091 8.52184 12.0169 8.68501C11.8602 8.51956 11.6716 8.3877 11.4624 8.29744C11.2532 8.20719 11.0278 8.16043 10.8 8.16001ZM4.39687 11.1956C0.997991 13.8217 -0.459821 17.6637 1.07906 20.4319C1.7237 21.5916 2.82789 22.4089 4.27125 22.7953C4.88133 22.9585 5.53317 23.0381 6.21093 23.0381C8.03493 23.0381 10.0368 22.4591 11.8594 21.3666C13.8983 20.1441 15.406 18.501 16.2609 16.7822C17.1015 16.6906 17.76 15.9845 17.76 15.12C17.76 14.1936 17.0064 13.44 16.08 13.44C15.1536 13.44 14.4 14.1936 14.4 15.12C14.4 15.3793 14.4634 15.6224 14.5687 15.8419C13.8757 17.2698 12.5825 18.6938 10.8722 19.7194C8.8101 20.9559 6.52782 21.4128 4.76718 20.9409C3.8379 20.6923 3.1431 20.1932 2.75718 19.4991C1.82886 17.8287 2.75822 15.3233 4.81406 13.3706C4.61678 12.6794 4.47559 11.9516 4.39687 11.1956Z" fill="url(#paint0_linear_2_3)"/>
<defs>
<linearGradient id="paint0_linear_2_3" x1="-5.16322e-09" y1="12" x2="24" y2="12" gradientUnits="userSpaceOnUse">
<stop stop-color="#4776E6"/>
<stop offset="1" stop-color="#8E54E9"/>
</linearGradient>
</defs>
</svg>
