<svg width="57" height="43" viewBox="0 0 57 43" fill="none" xmlns="http://www.w3.org/2000/svg">
<path fill-rule="evenodd" clip-rule="evenodd" d="M41.6828 12.0662H53.2969C54.1789 12.0662 54.9865 12.4283 55.5622 13.0038C56.147 13.5886 56.4998 14.3871 56.4998 15.2692V39.7974C56.4998 40.6794 56.1378 41.487 55.5622 42.0627C54.9774 42.6475 54.1789 43.0003 53.2969 43.0003H41.6828C40.8008 43.0003 39.9932 42.6381 39.4176 42.0627C38.8328 41.4779 38.4799 40.6794 38.4799 39.7974V15.2692C38.4799 14.3871 38.8419 13.5796 39.4175 13.004C40.0023 12.4192 40.8008 12.0664 41.6826 12.0664V12.0662H41.6828ZM52.1581 26.047L46.7649 27.123L47.8539 25.509C46.1092 23.7205 44.1945 23.1026 41.937 23.8246C44.2886 20.7944 47.4888 20.7253 50.026 22.2894L51.1366 20.6432L52.1581 26.047V26.0471V26.047ZM26.6137 17.9595L32.0068 16.8835L30.9179 18.4975C32.6625 20.286 34.5774 20.9038 36.8348 20.1819C34.4831 23.2123 31.2829 23.2812 28.7458 21.7172L27.6351 23.3633L26.6135 17.9597V17.9595H26.6137ZM1.88902 0.000336003H50.2496C51.0138 0.000336003 51.6386 0.625806 51.6386 1.38937V9.79214H48.6873V4.14409C48.6873 3.46806 48.1341 2.91533 47.4578 2.91533H4.68084V2.91483C4.00481 2.91483 3.45192 3.46738 3.45192 4.14376V27.7866C3.45192 28.4627 4.00481 29.0159 4.68084 29.0159H35.4542V34.817H1.88919C1.1258 34.817 0.5 34.192 0.5 33.4274V1.3892C0.5 0.625806 1.12563 0 1.88919 0V0.000168002H1.88902V0.000336003ZM32.3744 36.7374C32.4082 38.9204 33.305 40.8723 35.7406 42.4115H16.3985C18.3453 40.9971 19.7722 39.2809 19.7647 36.7374H32.3744ZM26.0694 30.1339C27.0545 30.1339 27.8545 30.9335 27.8545 31.9196C27.8545 32.9048 27.0544 33.7041 26.0694 33.7041C25.0837 33.7041 24.2835 32.9046 24.2835 31.9196C24.2835 30.9333 25.0839 30.1339 26.0694 30.1339ZM47.4853 39.0639C48.2096 39.0639 48.8036 39.6487 48.8036 40.3822C48.8036 41.1063 48.2188 41.7005 47.4853 41.7005C46.7612 41.7005 46.167 41.1157 46.167 40.3822C46.167 39.6581 46.7518 39.0639 47.4853 39.0639ZM39.8274 38.0613H55.1431V16.44H39.8274V38.0613Z" fill="url(#paint0_linear)"/>
<defs>
<linearGradient id="paint0_linear" x1="0.5" y1="21.5002" x2="56.4998" y2="21.5002" gradientUnits="userSpaceOnUse">
<stop stop-color="#4776E6"/>
<stop offset="1" stop-color="#8E54E9"/>
</linearGradient>
</defs>
</svg>
