<svg width="47" height="46" viewBox="0 0 50 46" fill="none" xmlns="http://www.w3.org/2000/svg">
<path d="M23.4781 0C36.1678 0 46.4562 10.2885 46.4562 22.9781C46.4562 35.6678 36.1678 45.9562 23.4781 45.9562C10.7885 45.9562 0.5 35.6678 0.5 22.9781C0.5 10.2885 10.7885 0 23.4781 0ZM18.9112 30.6337C19.2463 31.8687 19.2099 33.0234 18.8653 34.0651L18.7408 34.4097C18.6948 34.5265 18.6412 34.6395 18.5914 34.7467C18.3234 35.3021 17.9672 35.8191 17.5287 36.2978C16.1921 37.7511 14.3271 38.3026 13.5267 37.8392C12.665 37.3375 13.0939 35.2829 14.6449 33.6457C16.3128 31.8879 18.7044 30.7562 18.7044 30.7562V30.7505L18.9112 30.6337ZM37.8892 9.83655C36.8514 5.75219 30.0824 4.40988 23.6773 6.68663C19.8686 8.04043 15.7422 10.1678 12.7761 12.9424C9.247 16.2379 8.68596 19.1101 8.91765 20.3107C9.73529 24.5445 15.5373 27.3133 17.9232 29.368V29.3794C17.2204 29.7241 12.0714 32.3072 10.865 34.9804C9.57253 37.7952 11.0661 39.8077 12.0427 40.0643C15.0586 40.8991 18.1606 39.3749 19.8265 36.9067C21.435 34.4921 21.2933 31.39 20.6001 29.8677C21.5499 29.6092 22.6681 29.4943 24.1043 29.6686C28.1274 30.1281 28.9316 32.6557 28.7573 33.6898C28.585 34.7219 27.7559 35.325 27.4667 35.4974C27.1795 35.6716 27.0933 35.7271 27.1202 35.844C27.1489 36.0163 27.2944 36.0163 27.5223 35.9876C27.8382 35.9301 29.6209 35.1259 29.7071 33.1708C29.7933 30.7007 27.4361 27.9452 23.2445 28.0008C21.5212 28.0314 20.4278 28.175 19.6542 28.491C19.5967 28.4048 19.5374 28.3473 19.4531 28.2899C16.8681 25.5038 12.0714 23.5507 12.2725 19.8454C12.3299 18.4955 12.8182 14.9358 21.4637 10.6274C28.5582 7.09258 34.2185 8.07106 35.195 10.2253C36.5986 13.2967 32.1773 19.0144 24.7955 19.8454C21.9807 20.1614 20.5159 19.0718 20.1405 18.6678C19.7403 18.237 19.6829 18.2082 19.5393 18.2963C19.3095 18.4112 19.4531 18.7846 19.5393 19.0144C19.7691 19.5888 20.6595 20.5941 22.2124 21.1111C23.5605 21.542 26.8655 21.7986 30.8292 20.2495C35.2793 18.528 38.7547 13.7294 37.7494 9.70826L37.8892 9.83655Z" fill="url(#paint0_linear)"/>
<defs>
<linearGradient id="paint0_linear" x1="0.5" y1="22.9781" x2="46.4562" y2="22.9781" gradientUnits="userSpaceOnUse">
<stop stop-color="#4776E6"/>
<stop offset="1" stop-color="#8E54E9"/>
</linearGradient>
</defs>
</svg>
