<svg width="25" height="24" viewBox="0 0 25 24" fill="none" xmlns="http://www.w3.org/2000/svg">
<rect x="5" y="4" width="15" height="16" fill="#F6F6F6"/>
<path d="M23.705 14.3496C23.8669 13.5995 23.9674 12.8011 23.9674 12.0027C23.9674 5.92096 18.8379 1.00201 12.5083 1.00201C11.6767 1.00201 10.8506 1.0931 10.0636 1.25385C9.00311 0.466176 7.68585 0 6.25138 0C2.80196 0 0 2.68989 0 6.00134C0 7.37843 0.485598 8.643 1.30051 9.65573C1.13864 10.4059 1.03818 11.2043 1.03818 12.0027C1.03818 18.0844 6.16766 23.0033 12.4972 23.0033C13.3288 23.0033 14.1549 22.9123 14.9419 22.7515C16.0024 23.5338 17.3197 24 18.7486 24C22.198 24 25 21.3101 25 17.9987C25.0055 16.6269 24.5199 15.3624 23.705 14.3496ZM12.8432 19.2525C9.18172 19.2525 6.11742 17.6879 6.11742 15.7696C6.11742 14.9123 6.61977 14.1299 7.764 14.1299C9.50545 14.1299 9.66732 16.5358 12.6814 16.5358C14.1158 16.5358 15.0424 15.925 15.0424 15.1266C15.0424 14.1246 14.1493 13.9692 12.6981 13.6263C9.20963 12.8011 6.12301 12.4474 6.12301 8.95378C6.12301 5.78165 9.39382 4.60817 12.2125 4.60817C15.288 4.60817 18.3969 5.78165 18.3969 7.57669C18.3969 8.48225 17.7606 9.28064 16.7057 9.28064C15.1261 9.28064 15.0759 7.4856 12.5195 7.4856C11.085 7.4856 10.1752 7.86068 10.1752 8.69123C10.1752 9.75218 11.3362 9.85934 14.0321 10.4595C16.3429 10.9578 19.0946 11.8955 19.0946 14.6175C19.0946 17.7843 15.9075 19.2525 12.8432 19.2525Z" fill="url(#paint0_linear)"/>
<defs>
<linearGradient id="paint0_linear" x1="40.625" y1="-6.6" x2="-3.13136" y2="25.6855" gradientUnits="userSpaceOnUse">
<stop stop-color="#26B5B3"/>
<stop offset="0.5" stop-color="#4C83E7"/>
<stop offset="1" stop-color="#7F2FE0"/>
</linearGradient>
</defs>
</svg>
