<svg width="123" height="123" viewBox="0 0 123 123" fill="none" xmlns="http://www.w3.org/2000/svg">
<path fill-rule="evenodd" clip-rule="evenodd" d="M0 61.44V0H122.88V122.88H0V61.44Z" fill="url(#paint0_linear_1_3)"/>
<path fill-rule="evenodd" clip-rule="evenodd" d="M26.94 61.65V66.66H42.91V112.13H54.25V66.66H70.22V61.74C70.22 58.98 70.22 56.73 70.1 56.67C70.1 56.58 60.36 56.55 48.53 56.55L27.03 56.64V61.68L26.94 61.65ZM98.73 56.52C101.86 57.26 104.26 58.67 106.41 60.91C107.55 62.14 109.24 64.29 109.36 64.84C109.36 65.02 104.05 68.62 100.82 70.62C100.7 70.71 100.21 70.19 99.71 69.39C98.11 67.12 96.48 66.13 93.93 65.95C90.24 65.7 87.79 67.64 87.79 70.86C87.79 71.84 87.97 72.4 88.34 73.19C89.17 74.88 90.71 75.89 95.47 77.98C104.26 81.76 108.07 84.25 110.37 87.81C112.98 91.8 113.56 98.07 111.81 102.77C109.84 107.9 105.05 111.37 98.2 112.51C96.05 112.88 91.13 112.82 88.83 112.42C83.92 111.5 79.21 109.04 76.33 105.88C75.19 104.65 73.01 101.36 73.14 101.15L74.31 100.41L78.92 97.74L82.39 95.71L83.19 96.79C84.2 98.39 86.48 100.54 87.8 101.28C91.79 103.34 97.14 103.06 99.78 100.67C100.92 99.63 101.41 98.52 101.41 96.98C101.41 95.57 101.19 94.92 100.49 93.85C99.51 92.5 97.54 91.39 92.01 88.94C85.65 86.24 82.95 84.52 80.43 81.87C78.99 80.27 77.67 77.78 77.05 75.73C76.59 73.95 76.44 69.59 76.87 67.83C78.19 61.69 82.83 57.39 89.47 56.16C91.62 55.73 96.69 55.91 98.81 56.47L98.73 56.52Z" fill="white"/>
<defs>
<linearGradient id="paint0_linear_1_3" x1="0" y1="61" x2="123" y2="61" gradientUnits="userSpaceOnUse">
<stop stop-color="#4776E6"/>
<stop offset="0.5" stop-color="#4776E6"/>
<stop offset="1" stop-color="#8E54E9"/>
</linearGradient>
</defs>
</svg>
