<svg width="47" height="46" viewBox="0 0 50 46" fill="none" xmlns="http://www.w3.org/2000/svg">
<path d="M41.6098 13.0688C43.2182 16.0119 44.1335 19.3878 44.1335 22.9781C44.1335 30.5973 40.0051 37.2552 33.8642 40.834L40.1736 22.5913C41.3513 19.6425 41.7438 17.2853 41.7438 15.1924C41.7438 14.4169 41.694 13.6988 41.6098 13.0669V13.0688ZM26.3274 13.268C27.5663 13.2105 28.6865 13.0669 28.6865 13.0669C29.8009 12.9233 29.6707 11.2861 28.5582 11.3454C28.5582 11.3454 25.1977 11.604 23.0435 11.604C21.0061 11.604 17.5861 11.3167 17.5861 11.3167C16.466 11.2593 16.3204 12.9539 17.4425 13.0114C17.4425 13.0114 18.4765 13.1282 19.5967 13.1837L22.8137 22.0016L18.2755 35.5586L10.7521 13.2124C11.9948 13.155 13.115 13.0209 13.115 13.0209C14.2352 12.8773 14.103 11.2401 12.9905 11.3052C12.9905 11.3052 9.64721 11.5695 7.48726 11.5695C7.10429 11.5695 6.64856 11.5542 6.16602 11.5408C9.9038 6.03176 16.2687 2.32653 23.4781 2.32653C28.8569 2.32653 33.7513 4.37925 37.4297 7.75129C37.3416 7.74554 37.2554 7.73405 37.1597 7.73405C35.1299 7.73405 33.69 9.50145 33.69 11.3991C33.69 13.1033 34.6723 14.5452 35.7197 16.2455C36.5067 17.6242 37.4239 19.3916 37.4239 21.946C37.4239 23.6981 36.7461 25.7642 35.8518 28.6078L33.7934 35.4725L26.3255 13.2411L26.3274 13.268ZM23.4781 43.6278C21.4503 43.6278 19.4933 43.3348 17.6417 42.791L23.84 24.78L30.1877 42.1802C30.2337 42.2817 30.2835 42.3736 30.3371 42.4655C28.1925 43.218 25.8851 43.6316 23.4781 43.6316V43.6278ZM2.81888 22.9781C2.81888 19.9833 3.46226 17.1378 4.60925 14.572L14.4592 41.5693C7.57343 38.2203 2.82079 31.1564 2.81888 22.9781ZM23.4781 0C10.8114 0 0.5 10.3114 0.5 22.9781C0.5 35.6448 10.8114 45.9562 23.4781 45.9562C36.1448 45.9562 46.4562 35.6448 46.4562 22.9781C46.4562 10.3114 36.1448 0 23.4781 0Z" fill="url(#paint0_linear)"/>
<defs>
<linearGradient id="paint0_linear" x1="0.5" y1="22.9781" x2="46.4562" y2="22.9781" gradientUnits="userSpaceOnUse">
<stop stop-color="#4776E6"/>
<stop offset="1" stop-color="#8E54E9"/>
</linearGradient>
</defs>
</svg>
