<svg width="298" height="309" viewBox="0 0 298 309" fill="none" xmlns="http://www.w3.org/2000/svg">
<path d="M285.969 235.623L127.039 143.784C124.808 142.512 123.003 139.04 123.003 136.07V13.0228C123.003 10.0463 124.808 8.67893 127.039 9.97001L285.969 101.808C288.2 103.08 290.005 106.553 290.005 109.523V232.57C290.03 235.546 288.225 236.914 285.969 235.623Z" fill="#B1B4C4"/>
<path d="M286.814 236.895L288.575 235.877L287.812 230.656L286.814 236.895Z" fill="#B1B4C4"/>
<path d="M122.717 10.7141L124.452 9.70926L126.943 11.1339C126.943 11.1339 124.287 11.5346 124.223 11.5219C124.16 11.5091 122.717 10.7141 122.717 10.7141Z" fill="#B1B4C4"/>
<path d="M284.539 236.494L125.583 144.63C123.353 143.358 121.541 139.886 121.541 136.909V13.8941C121.541 10.9177 123.353 9.55026 125.583 10.8413L284.539 102.68C286.77 103.952 288.575 107.424 288.575 110.401V233.416C288.575 236.386 286.77 237.766 284.539 236.494Z" fill="#E4E7F2"/>
<path d="M284.259 236.628L125.304 144.789C123.073 143.517 121.262 140.045 121.262 137.068V14.0213C121.262 11.0512 123.073 9.68382 125.304 10.9685L284.259 102.807C286.484 104.079 288.295 107.551 288.295 110.528V233.575C288.295 236.551 286.484 237.919 284.259 236.628Z" fill="#D6D8E5"/>
<path d="M286.109 229.142L123.27 135.071L123.365 14.5301C123.365 13.2963 124.23 12.7939 125.272 13.4108L284.228 105.249C284.786 105.619 285.249 106.115 285.58 106.698C285.911 107.28 286.101 107.932 286.134 108.601L286.109 229.142Z" fill="white"/>
<path opacity="0.5" d="M286.058 229.148L123.27 135.078L123.321 14.5301C123.321 13.2963 124.185 12.7939 125.227 13.4108L284.183 105.249C284.741 105.62 285.204 106.116 285.535 106.698C285.866 107.28 286.056 107.932 286.09 108.601L286.058 229.148Z" fill="url(#paint0_linear)"/>
<path opacity="0.4" d="M164.371 308.127L5.41474 216.288C3.18398 215.016 3.46362 212.752 6.05028 211.264L112.536 149.737C115.078 148.255 119.005 148.09 121.23 149.381L280.192 241.22C282.416 242.492 282.137 244.756 279.556 246.244L173.065 307.771C170.491 309.253 166.595 309.418 164.371 308.127Z" fill="#D6D8E5"/>
<path d="M167.841 306.041L8.8721 214.234C6.64135 212.962 6.92099 210.698 9.50765 209.21L115.993 147.689C118.535 146.201 122.463 146.036 124.694 147.327L283.649 239.165C285.88 240.437 285.6 242.702 283.014 244.19L176.541 305.685C173.967 307.166 170.071 307.332 167.841 306.041Z" fill="#B1B4C4"/>
<path d="M7.37857 212.129V209.127L10.747 210.539L7.37857 212.129Z" fill="#B1B4C4"/>
<path d="M285.156 241.379V238.447L282.664 239.305L284.317 241.735L285.156 241.379Z" fill="#B1B4C4"/>
<path d="M167.841 303.516L8.8721 211.69C6.64135 210.418 6.92099 208.154 9.50765 206.666L115.993 145.139C118.535 143.651 122.463 143.492 124.694 144.783L283.649 236.621C285.88 237.893 285.6 240.158 283.014 241.646L176.541 303.153C173.967 304.642 170.071 304.807 167.841 303.516Z" fill="#E4E7F2"/>
<path d="M167.841 303.128L8.8721 211.289C6.64135 210.017 6.92099 207.747 9.50765 206.265L115.993 144.738C118.535 143.25 122.463 143.091 124.694 144.376L283.649 236.221C285.88 237.493 285.6 239.757 283.014 241.245L176.541 302.765C173.967 304.254 170.071 304.413 167.841 303.128Z" fill="#D6D8E5"/>
<path d="M113.044 165.491L105.646 161.217C105.011 160.867 105.119 160.257 105.812 159.856L112.879 155.773C113.236 155.574 113.635 155.462 114.043 155.445C114.452 155.429 114.858 155.508 115.23 155.678L122.634 159.952C123.238 160.301 123.162 160.912 122.463 161.313L115.402 165.396C115.044 165.595 114.644 165.707 114.234 165.724C113.825 165.74 113.417 165.66 113.044 165.491Z" fill="#2B303F"/>
<path d="M123.524 171.546L116.12 167.266C115.516 166.922 115.593 166.312 116.292 165.905L123.353 161.828C123.711 161.629 124.111 161.516 124.52 161.5C124.93 161.483 125.337 161.563 125.71 161.732L133.108 166.006C133.744 166.356 133.636 166.967 132.943 167.367L125.876 171.444C125.519 171.645 125.121 171.76 124.712 171.777C124.303 171.795 123.896 171.716 123.524 171.546Z" fill="#2B303F"/>
<path d="M134.119 177.67L126.721 173.39C126.085 173.04 126.193 172.43 126.886 172.029L133.953 167.952C134.31 167.751 134.708 167.637 135.117 167.619C135.526 167.601 135.933 167.681 136.305 167.851L143.709 172.131C144.345 172.474 144.236 173.085 143.537 173.492L136.477 177.569C136.118 177.767 135.719 177.879 135.31 177.897C134.9 177.914 134.493 177.837 134.119 177.67Z" fill="#2B303F"/>
<path d="M144.478 183.649L137.074 179.375C136.47 179.025 136.546 178.415 137.246 178.014L144.306 173.931C144.665 173.732 145.065 173.62 145.474 173.603C145.883 173.586 146.291 173.666 146.664 173.835L154.068 178.109C154.672 178.459 154.596 179.07 153.897 179.47L146.836 183.554C146.478 183.752 146.078 183.865 145.668 183.881C145.259 183.898 144.851 183.818 144.478 183.649Z" fill="#2B303F"/>
<path d="M154.958 189.704L147.554 185.43C146.919 185.08 147.027 184.469 147.726 184.069L154.787 179.986C155.145 179.787 155.545 179.674 155.954 179.658C156.364 179.641 156.771 179.721 157.144 179.89L164.542 184.164C165.146 184.514 165.07 185.124 164.371 185.525L157.31 189.608C156.952 189.807 156.554 189.919 156.145 189.936C155.737 189.953 155.33 189.873 154.958 189.704Z" fill="#2B303F"/>
<path d="M165.432 195.79L158.034 191.516C157.43 191.166 157.5 190.556 158.199 190.155L165.26 186.072C165.619 185.873 166.018 185.761 166.428 185.744C166.837 185.728 167.245 185.807 167.618 185.977L175.022 190.251C175.626 190.6 175.55 191.211 174.851 191.612L167.79 195.695C167.431 195.894 167.032 196.006 166.622 196.023C166.213 196.039 165.805 195.96 165.432 195.79Z" fill="#2B303F"/>
<path d="M175.912 201.813L168.508 197.539C167.904 197.189 167.98 196.579 168.68 196.178L175.74 192.095C176.099 191.896 176.499 191.784 176.908 191.767C177.317 191.751 177.725 191.83 178.098 192L185.496 196.274C186.1 196.623 186.023 197.234 185.331 197.635L178.263 201.711C177.907 201.913 177.509 202.027 177.1 202.045C176.691 202.062 176.284 201.983 175.912 201.813Z" fill="#2B303F"/>
<path d="M186.386 207.874L178.988 203.594C178.384 203.244 178.461 202.64 179.153 202.233L186.221 198.156C186.577 197.955 186.975 197.84 187.384 197.823C187.793 197.805 188.2 197.884 188.572 198.054L195.976 202.335C196.612 202.684 196.504 203.289 195.804 203.696L188.731 207.766C188.376 207.966 187.978 208.081 187.571 208.099C187.164 208.118 186.758 208.041 186.386 207.874Z" fill="#2B303F"/>
<path d="M196.866 213.916L189.462 209.642C188.858 209.292 188.934 208.682 189.633 208.281L196.694 204.204C197.052 204.003 197.451 203.889 197.861 203.871C198.271 203.853 198.679 203.933 199.052 204.103L206.45 208.383C207.054 208.726 206.977 209.337 206.285 209.744L199.224 213.821C198.865 214.02 198.466 214.132 198.056 214.149C197.647 214.165 197.239 214.086 196.866 213.916Z" fill="#2B303F"/>
<path d="M207.34 219.958L199.942 215.684C199.338 215.334 199.414 214.724 200.107 214.323L207.162 210.253C207.519 210.054 207.918 209.942 208.326 209.925C208.735 209.908 209.141 209.988 209.513 210.157L216.917 214.431C217.521 214.781 217.445 215.392 216.746 215.792L209.704 219.875C209.344 220.073 208.942 220.184 208.532 220.198C208.121 220.213 207.713 220.13 207.34 219.958Z" fill="#2B303F"/>
<path d="M217.82 226.026L210.416 221.752C209.812 221.402 209.888 220.791 210.587 220.391L217.648 216.308C218.006 216.109 218.406 215.996 218.816 215.98C219.225 215.963 219.633 216.043 220.006 216.212L227.41 220.486C228.014 220.836 227.938 221.446 227.238 221.847L220.178 225.93C219.819 226.129 219.419 226.241 219.01 226.258C218.601 226.275 218.193 226.195 217.82 226.026Z" fill="#2B303F"/>
<path d="M228.3 232.08L220.896 227.806C220.292 227.457 220.368 226.846 221.067 226.445L228.135 222.362C228.493 222.163 228.893 222.051 229.302 222.034C229.712 222.018 230.119 222.097 230.492 222.267L237.89 226.541C238.526 226.891 238.418 227.501 237.719 227.902L230.677 231.985C230.316 232.188 229.913 232.303 229.5 232.319C229.087 232.336 228.675 232.254 228.3 232.08Z" fill="#2B303F"/>
<path d="M238.774 238.135L231.376 233.855C230.74 233.505 230.842 232.901 231.541 232.494L238.602 228.417C238.96 228.217 239.359 228.104 239.769 228.086C240.178 228.068 240.586 228.147 240.96 228.315L248.364 232.595C248.968 232.945 248.891 233.549 248.192 233.956L241.131 238.033C240.774 238.235 240.374 238.349 239.965 238.367C239.555 238.384 239.147 238.305 238.774 238.135Z" fill="#2B303F"/>
<path d="M254.3 247.103L241.85 239.909C241.246 239.56 241.322 238.949 242.021 238.548L249.108 234.472C249.465 234.27 249.865 234.156 250.274 234.138C250.684 234.121 251.092 234.2 251.465 234.37L263.884 241.582C264.488 241.932 264.411 242.543 263.719 242.943L256.651 247.026C256.293 247.222 255.893 247.331 255.485 247.344C255.076 247.358 254.671 247.275 254.3 247.103Z" fill="#2B303F"/>
<path d="M118.433 180.335L111.029 176.074C110.394 175.724 110.502 175.114 111.201 174.713L118.262 170.63C118.62 170.431 119.02 170.319 119.429 170.302C119.839 170.286 120.247 170.365 120.62 170.535L128.017 174.802C128.621 175.152 128.545 175.763 127.852 176.163L120.785 180.246C120.427 180.444 120.028 180.555 119.62 180.571C119.211 180.586 118.805 180.506 118.433 180.335Z" fill="#2B303F"/>
<path d="M128.926 186.403L121.529 182.129C120.925 181.779 121.001 181.168 121.694 180.768L128.761 176.71C129.118 176.511 129.517 176.399 129.925 176.382C130.334 176.366 130.74 176.445 131.113 176.615L138.523 180.863C139.127 181.213 139.05 181.824 138.351 182.224L131.29 186.307C130.931 186.507 130.53 186.62 130.12 186.637C129.709 186.653 129.3 186.573 128.926 186.403Z" fill="#2B303F"/>
<path d="M139.425 192.464L132.021 188.19C131.386 187.84 131.494 187.23 132.193 186.829L139.254 182.746C139.612 182.547 140.012 182.435 140.421 182.418C140.831 182.401 141.239 182.481 141.612 182.65L149.009 186.924C149.613 187.274 149.537 187.885 148.844 188.285L141.777 192.368C141.42 192.567 141.021 192.68 140.613 192.696C140.204 192.713 139.798 192.633 139.425 192.464Z" fill="#2B303F"/>
<path d="M149.918 198.531L142.514 194.251C141.91 193.908 141.987 193.297 142.686 192.89L149.747 188.794C150.104 188.594 150.504 188.481 150.914 188.463C151.323 188.445 151.731 188.524 152.105 188.692L159.496 192.992C160.1 193.342 160.023 193.946 159.324 194.353L152.263 198.43C151.908 198.629 151.51 198.742 151.103 198.76C150.696 198.777 150.29 198.699 149.918 198.531Z" fill="#2B303F"/>
<path d="M160.328 204.548L152.931 200.242C152.327 199.892 152.403 199.288 153.096 198.881L160.163 194.804C160.519 194.603 160.918 194.489 161.327 194.471C161.735 194.453 162.143 194.533 162.515 194.703L169.919 198.983C170.554 199.326 170.446 199.937 169.747 200.344L162.674 204.446C162.317 204.644 161.92 204.756 161.513 204.774C161.106 204.792 160.7 204.714 160.328 204.548Z" fill="#2B303F"/>
<path d="M170.828 210.609L163.424 206.335C162.82 205.985 162.896 205.375 163.595 204.974L170.656 200.878C171.014 200.679 171.414 200.567 171.824 200.55C172.233 200.534 172.641 200.613 173.014 200.783L180.412 205.057C181.015 205.406 180.939 206.017 180.246 206.418L173.179 210.501C172.823 210.702 172.425 210.816 172.016 210.835C171.608 210.854 171.201 210.776 170.828 210.609Z" fill="#2B303F"/>
<path d="M181.32 216.67L173.916 212.396C173.313 212.046 173.389 211.436 174.088 211.035L181.149 206.958C181.506 206.757 181.906 206.643 182.316 206.625C182.725 206.607 183.133 206.687 183.507 206.857L190.911 211.137C191.515 211.48 191.438 212.091 190.739 212.498L183.678 216.575C183.32 216.774 182.92 216.886 182.511 216.902C182.101 216.919 181.694 216.839 181.32 216.67Z" fill="#2B303F"/>
<path d="M191.813 222.737L184.416 218.464C183.812 218.114 183.888 217.503 184.587 217.102L191.648 213.019C192.005 212.82 192.404 212.708 192.812 212.692C193.221 212.675 193.627 212.755 194 212.924L201.404 217.198C202.007 217.548 201.931 218.158 201.232 218.559L194.171 222.642C193.813 222.841 193.413 222.953 193.004 222.97C192.594 222.986 192.186 222.907 191.813 222.737Z" fill="#2B303F"/>
<path d="M202.312 228.799L194.908 224.525C194.273 224.175 194.381 223.564 195.08 223.164L202.141 219.08C202.499 218.881 202.899 218.769 203.308 218.753C203.718 218.736 204.126 218.816 204.499 218.985L211.896 223.259C212.5 223.609 212.43 224.219 211.731 224.62L204.67 228.703C204.312 228.902 203.912 229.014 203.503 229.031C203.093 229.048 202.686 228.968 202.312 228.799Z" fill="#2B303F"/>
<path d="M212.805 234.866L205.408 230.586C204.804 230.242 204.88 229.632 205.573 229.225L212.64 225.148C212.997 224.949 213.396 224.837 213.804 224.819C214.212 224.802 214.619 224.879 214.992 225.046L222.415 229.326C223.018 229.676 222.942 230.287 222.243 230.687L215.182 234.764C214.823 234.969 214.419 235.085 214.006 235.102C213.593 235.12 213.181 235.039 212.805 234.866Z" fill="#2B303F"/>
<path d="M223.304 240.946L215.9 236.672C215.297 236.322 215.373 235.712 216.072 235.311L223.133 231.228C223.491 231.029 223.891 230.917 224.301 230.9C224.71 230.884 225.118 230.963 225.491 231.133L232.889 235.407C233.492 235.756 233.416 236.367 232.723 236.768L225.656 240.851C225.299 241.05 224.9 241.162 224.492 241.178C224.083 241.195 223.677 241.115 223.304 240.946Z" fill="#2B303F"/>
<path d="M233.797 246.994L226.4 242.714C225.796 242.364 225.866 241.76 226.565 241.353L233.626 237.276C233.983 237.076 234.383 236.963 234.793 236.945C235.202 236.928 235.61 237.006 235.984 237.175L243.388 241.455C243.991 241.805 243.915 242.409 243.216 242.816L236.155 246.893C235.798 247.094 235.398 247.208 234.988 247.226C234.579 247.244 234.171 247.164 233.797 246.994Z" fill="#2B303F"/>
<path d="M107.934 174.274L95.4903 167.081C94.8865 166.731 94.9628 166.127 95.6555 165.72L102.723 161.643C103.079 161.442 103.478 161.328 103.886 161.31C104.295 161.292 104.702 161.372 105.074 161.542L117.55 168.735C118.154 169.084 118.078 169.695 117.378 170.096L110.292 174.166C109.935 174.367 109.535 174.482 109.126 174.5C108.717 174.519 108.308 174.442 107.934 174.274Z" fill="#2B303F"/>
<path d="M253.792 247.491L246.394 243.217C246.053 243.043 245.677 242.952 245.294 242.952C244.912 242.952 244.535 243.043 244.195 243.217L236.734 247.529C236.098 247.879 236.098 248.445 236.734 248.801L237.325 249.144C237.884 249.462 237.878 249.99 237.325 250.314L229.406 254.868C228.77 255.224 228.77 255.79 229.406 256.14L234.115 258.862C234.455 259.035 234.83 259.125 235.211 259.125C235.592 259.125 235.968 259.035 236.308 258.862L243.693 254.601L245.218 253.717L246.318 253.081L247.423 252.445L253.779 248.775C254.395 248.406 254.395 247.84 253.792 247.491Z" fill="#2B303F"/>
<path d="M72.4646 188.985L65.0669 184.711C64.4313 184.361 64.5394 183.751 65.2321 183.35L72.2993 179.254C72.6565 179.055 73.0553 178.943 73.4638 178.926C73.8722 178.91 74.2788 178.989 74.6509 179.159L82.0549 183.433C82.6587 183.782 82.5824 184.393 81.8833 184.794L74.8224 188.877C74.4652 189.078 74.0658 189.192 73.6563 189.211C73.2469 189.23 72.8387 189.152 72.4646 188.985Z" fill="#2B303F"/>
<path d="M82.9129 195.021L75.5152 190.747C74.8796 190.397 74.9877 189.786 75.6804 189.386L82.7477 185.302C83.1048 185.104 83.5037 184.991 83.9121 184.975C84.3205 184.958 84.7271 185.038 85.0992 185.207L92.5033 189.481C93.107 189.831 93.0308 190.441 92.3317 190.842L85.2708 194.925C84.9125 195.124 84.5126 195.236 84.1032 195.253C83.6937 195.27 83.2861 195.19 82.9129 195.021Z" fill="#2B303F"/>
<path d="M93.3612 201.056L85.9635 196.782C85.328 196.433 85.4296 195.822 86.1287 195.421L93.1896 191.338C93.5479 191.139 93.9478 191.027 94.3572 191.01C94.7667 190.994 95.1743 191.073 95.5475 191.243L102.933 195.517C103.536 195.866 103.46 196.477 102.761 196.878L95.7 200.961C95.3441 201.157 94.9477 201.267 94.5419 201.284C94.136 201.3 93.7319 201.222 93.3612 201.056Z" fill="#2B303F"/>
<path d="M182.337 252.464L174.933 248.184C174.298 247.84 174.406 247.23 175.105 246.823L182.166 242.746C182.524 242.546 182.923 242.433 183.333 242.415C183.742 242.397 184.15 242.476 184.524 242.644L191.909 246.925C192.544 247.274 192.436 247.879 191.737 248.286L184.689 252.394C184.33 252.59 183.93 252.699 183.521 252.711C183.113 252.724 182.707 252.639 182.337 252.464Z" fill="#2B303F"/>
<path d="M192.779 258.5L185.382 254.226C184.746 253.876 184.854 253.265 185.547 252.865L192.614 248.782C192.971 248.583 193.37 248.47 193.778 248.454C194.187 248.437 194.593 248.517 194.966 248.686L202.37 252.96C203.005 253.31 202.897 253.921 202.198 254.321L195.137 258.404C194.779 258.603 194.379 258.716 193.97 258.732C193.56 258.749 193.152 258.669 192.779 258.5Z" fill="#2B303F"/>
<path d="M203.228 264.535L195.83 260.261C195.226 259.912 195.302 259.301 195.995 258.9L203.062 254.817C203.42 254.618 203.818 254.506 204.227 254.49C204.635 254.473 205.042 254.553 205.414 254.722L212.818 258.996C213.453 259.346 213.345 259.956 212.646 260.357L205.585 264.44C205.227 264.639 204.827 264.751 204.418 264.768C204.008 264.784 203.601 264.705 203.228 264.535Z" fill="#2B303F"/>
<path d="M213.676 270.571L206.278 266.297C205.674 265.947 205.751 265.337 206.444 264.936L213.517 260.853C213.874 260.654 214.273 260.542 214.682 260.525C215.09 260.509 215.497 260.588 215.869 260.758L223.273 265.031C223.908 265.381 223.8 265.992 223.101 266.392L216.059 270.476C215.698 270.679 215.293 270.793 214.879 270.81C214.465 270.826 214.053 270.745 213.676 270.571Z" fill="#2B303F"/>
<path d="M106.498 208.65L96.4055 202.818C95.8017 202.468 95.878 201.858 96.5771 201.457L103.638 197.374C103.996 197.175 104.396 197.063 104.806 197.046C105.215 197.029 105.623 197.109 105.996 197.278L116.088 203.111C116.724 203.46 116.616 204.065 115.917 204.472L108.856 208.548C108.498 208.75 108.099 208.864 107.689 208.882C107.279 208.899 106.871 208.82 106.498 208.65Z" fill="#2B303F"/>
<path d="M171.889 246.428L161.797 240.596C161.161 240.247 161.269 239.636 161.962 239.235L169.029 235.152C169.386 234.953 169.785 234.841 170.193 234.824C170.602 234.808 171.009 234.887 171.381 235.057L181.473 240.889C182.077 241.239 182.001 241.843 181.308 242.25L174.241 246.327C173.884 246.528 173.486 246.642 173.077 246.66C172.668 246.678 172.261 246.598 171.889 246.428Z" fill="#2B303F"/>
<path d="M158.746 238.835L109.549 210.418C108.945 210.068 109.021 209.458 109.714 209.057L116.781 204.974C117.138 204.775 117.537 204.663 117.945 204.646C118.354 204.63 118.76 204.709 119.133 204.879L168.336 233.314C168.94 233.664 168.864 234.275 168.165 234.675L161.104 238.758C160.744 238.954 160.343 239.063 159.934 239.076C159.524 239.09 159.118 239.007 158.746 238.835Z" fill="#2B303F"/>
<path d="M111.125 187.853L103.727 183.579C103.123 183.229 103.199 182.619 103.899 182.218L110.959 178.135C111.317 177.936 111.715 177.824 112.124 177.807C112.532 177.79 112.939 177.87 113.311 178.039L120.728 182.313C121.363 182.663 121.255 183.274 120.556 183.674L113.495 187.757C113.135 187.958 112.733 188.072 112.321 188.088C111.91 188.105 111.5 188.024 111.125 187.853Z" fill="#2B303F"/>
<path d="M121.592 193.882L114.194 189.602C113.591 189.252 113.667 188.648 114.36 188.241L121.427 184.164C121.783 183.964 122.182 183.851 122.59 183.833C122.999 183.815 123.406 183.894 123.778 184.062L131.182 188.343C131.818 188.692 131.71 189.297 131.011 189.704L123.95 193.78C123.593 193.982 123.193 194.096 122.783 194.114C122.373 194.131 121.965 194.052 121.592 193.882Z" fill="#2B303F"/>
<path d="M132.059 199.943L124.655 195.669C124.02 195.32 124.128 194.709 124.827 194.308L131.888 190.225C132.246 190.026 132.646 189.914 133.055 189.897C133.465 189.881 133.873 189.96 134.246 190.13L141.643 194.404C142.279 194.753 142.177 195.364 141.478 195.765L134.417 199.848C134.059 200.047 133.659 200.159 133.25 200.176C132.84 200.192 132.433 200.113 132.059 199.943Z" fill="#2B303F"/>
<path d="M142.527 205.966L135.123 201.692C134.487 201.342 134.595 200.732 135.294 200.331L142.336 196.274C142.695 196.075 143.094 195.962 143.504 195.946C143.913 195.929 144.321 196.009 144.694 196.178L152.092 200.452C152.727 200.802 152.619 201.412 151.927 201.813L144.878 205.896C144.519 206.091 144.119 206.199 143.711 206.211C143.303 206.223 142.897 206.139 142.527 205.966Z" fill="#2B303F"/>
<path d="M152.988 212.04L145.59 207.766C144.955 207.416 145.063 206.806 145.755 206.405L152.823 202.322C153.18 202.123 153.579 202.011 153.987 201.994C154.396 201.978 154.802 202.057 155.174 202.226L162.578 206.5C163.214 206.85 163.106 207.461 162.407 207.861L155.346 211.945C154.988 212.143 154.588 212.256 154.178 212.272C153.769 212.289 153.361 212.209 152.988 212.04Z" fill="#2B303F"/>
<path d="M163.455 218.088L156.058 213.808C155.422 213.458 155.524 212.854 156.223 212.447L163.309 208.37C163.666 208.169 164.066 208.055 164.476 208.037C164.886 208.019 165.294 208.099 165.667 208.268L173.071 212.549C173.675 212.899 173.599 213.503 172.9 213.91L165.839 217.987C165.478 218.192 165.074 218.309 164.659 218.326C164.245 218.344 163.832 218.262 163.455 218.088Z" fill="#2B303F"/>
<path d="M173.923 224.13L166.519 219.856C165.915 219.507 165.991 218.896 166.69 218.495L173.751 214.412C174.109 214.213 174.509 214.101 174.919 214.084C175.328 214.068 175.736 214.147 176.109 214.317L183.507 218.591C184.142 218.941 184.034 219.551 183.341 219.952L176.274 224.035C175.917 224.234 175.518 224.346 175.11 224.363C174.701 224.379 174.295 224.3 173.923 224.13Z" fill="#2B303F"/>
<path d="M184.39 230.179L176.986 225.905C176.382 225.555 176.459 224.944 177.158 224.544L184.219 220.461C184.577 220.262 184.977 220.149 185.386 220.133C185.796 220.116 186.203 220.196 186.576 220.365L193.974 224.639C194.578 224.989 194.502 225.599 193.803 226L186.742 230.083C186.384 230.282 185.986 230.394 185.577 230.411C185.169 230.428 184.762 230.348 184.39 230.179Z" fill="#2B303F"/>
<path d="M194.851 236.227L187.46 231.953C186.856 231.603 186.932 230.993 187.625 230.592L194.692 226.509C195.049 226.31 195.448 226.198 195.857 226.181C196.265 226.165 196.672 226.244 197.044 226.414L204.448 230.687C205.052 231.037 204.975 231.648 204.276 232.048L197.215 236.132C196.856 236.332 196.455 236.444 196.045 236.461C195.634 236.478 195.225 236.397 194.851 236.227Z" fill="#2B303F"/>
<path d="M205.319 242.275L197.915 237.995C197.311 237.645 197.387 237.041 198.086 236.634L205.147 232.557C205.504 232.356 205.904 232.242 206.314 232.224C206.723 232.206 207.132 232.286 207.505 232.456L214.909 236.736C215.513 237.079 215.436 237.69 214.737 238.097L207.676 242.174C207.319 242.374 206.919 242.487 206.51 242.505C206.1 242.522 205.692 242.444 205.319 242.275Z" fill="#2B303F"/>
<path d="M215.786 248.317L208.382 244.043C207.778 243.694 207.854 243.083 208.554 242.682L215.614 238.599C215.973 238.4 216.373 238.288 216.782 238.271C217.191 238.255 217.599 238.335 217.972 238.504L225.37 242.778C226.006 243.128 225.898 243.738 225.205 244.139L218.138 248.222C217.78 248.421 217.382 248.533 216.973 248.55C216.565 248.566 216.158 248.487 215.786 248.317Z" fill="#2B303F"/>
<path d="M226.228 254.366L218.83 250.092C218.226 249.742 218.303 249.131 219.002 248.731L226.063 244.648C226.42 244.449 226.819 244.336 227.227 244.32C227.636 244.303 228.042 244.383 228.414 244.552L235.818 248.826C236.422 249.176 236.346 249.787 235.647 250.187L228.605 254.302C228.242 254.499 227.837 254.608 227.424 254.619C227.011 254.63 226.601 254.543 226.228 254.366Z" fill="#2B303F"/>
<path d="M100.664 181.798L85.3534 172.958C84.7178 172.608 84.8259 171.997 85.525 171.597L92.5859 167.514C92.9442 167.315 93.344 167.202 93.7535 167.186C94.1629 167.169 94.5706 167.249 94.9437 167.418L110.248 176.259C110.883 176.608 110.775 177.219 110.082 177.62L103.015 181.703C102.658 181.902 102.259 182.014 101.851 182.03C101.442 182.047 101.036 181.967 100.664 181.798Z" fill="#2B303F"/>
<path d="M95.7763 190.702L88.3786 186.441C87.7748 186.091 87.8447 185.487 88.5438 185.08L95.6047 181.003C95.962 180.802 96.3618 180.687 96.7715 180.67C97.1812 180.652 97.5893 180.731 97.9626 180.901L105.367 185.182C105.97 185.525 105.894 186.136 105.195 186.543L98.1342 190.619C97.7749 190.816 97.3745 190.926 96.9651 190.941C96.5556 190.955 96.1485 190.873 95.7763 190.702Z" fill="#2B303F"/>
<path d="M106.244 196.763L98.8396 192.489C98.2359 192.14 98.3121 191.529 99.0112 191.128L106.072 187.045C106.43 186.846 106.83 186.734 107.24 186.717C107.649 186.701 108.057 186.78 108.43 186.95L115.828 191.224C116.463 191.573 116.355 192.184 115.662 192.585L108.595 196.668C108.238 196.867 107.839 196.979 107.431 196.996C107.022 197.012 106.616 196.933 106.244 196.763Z" fill="#2B303F"/>
<path d="M116.705 202.786L109.288 198.531C108.652 198.181 108.76 197.577 109.46 197.17L116.52 193.093C116.878 192.894 117.278 192.78 117.687 192.762C118.097 192.745 118.505 192.823 118.878 192.992L126.282 197.272C126.918 197.622 126.81 198.226 126.111 198.633L119.05 202.71C118.692 202.905 118.294 203.014 117.886 203.027C117.479 203.04 117.074 202.958 116.705 202.786Z" fill="#2B303F"/>
<path d="M127.166 208.854L119.768 204.58C119.133 204.23 119.241 203.619 119.94 203.219L127.001 199.135C127.358 198.937 127.757 198.824 128.165 198.808C128.573 198.791 128.98 198.871 129.352 199.04L136.756 203.314C137.36 203.664 137.284 204.274 136.585 204.675L129.524 208.758C129.165 208.957 128.765 209.069 128.356 209.086C127.947 209.103 127.539 209.023 127.166 208.854Z" fill="#2B303F"/>
<path d="M137.633 214.902L130.261 210.628C129.657 210.278 129.733 209.668 130.432 209.267L137.493 205.184C137.852 204.985 138.252 204.873 138.661 204.856C139.07 204.84 139.478 204.919 139.851 205.088L147.249 209.362C147.853 209.712 147.783 210.323 147.084 210.723L140.023 214.8C139.662 215.007 139.256 215.124 138.84 215.142C138.425 215.159 138.011 215.077 137.633 214.902Z" fill="#2B303F"/>
<path d="M148.094 220.944L140.697 216.67C140.093 216.32 140.169 215.71 140.862 215.309L147.929 211.226C148.286 211.027 148.685 210.915 149.093 210.898C149.502 210.882 149.908 210.961 150.281 211.13L157.685 215.404C158.288 215.754 158.212 216.365 157.513 216.765L150.452 220.849C150.094 221.048 149.694 221.16 149.285 221.176C148.875 221.193 148.467 221.113 148.094 220.944Z" fill="#2B303F"/>
<path d="M158.562 226.992L151.158 222.718C150.554 222.369 150.63 221.758 151.329 221.357L158.39 217.274C158.748 217.075 159.148 216.963 159.558 216.946C159.967 216.93 160.375 217.009 160.748 217.179L168.146 221.453C168.749 221.803 168.673 222.413 167.98 222.814L160.919 226.897C160.561 227.096 160.161 227.208 159.752 227.225C159.342 227.241 158.935 227.162 158.562 226.992Z" fill="#2B303F"/>
<path d="M169.029 233.041L161.631 228.76C161.028 228.411 161.104 227.806 161.797 227.399L168.864 223.323C169.22 223.121 169.619 223.007 170.027 222.989C170.436 222.972 170.843 223.051 171.215 223.221L178.619 227.501C179.223 227.845 179.147 228.455 178.448 228.862L171.387 232.939C171.029 233.139 170.629 233.252 170.22 233.27C169.811 233.288 169.403 233.209 169.029 233.041Z" fill="#2B303F"/>
<path d="M179.49 239.083L172.086 234.809C171.482 234.459 171.559 233.848 172.258 233.448L179.319 229.365C179.677 229.166 180.077 229.053 180.486 229.037C180.896 229.02 181.303 229.1 181.676 229.269L189.074 233.543C189.678 233.893 189.602 234.503 188.909 234.904L181.842 238.987C181.484 239.186 181.086 239.298 180.677 239.315C180.269 239.332 179.862 239.252 179.49 239.083Z" fill="#2B303F"/>
<path d="M189.951 245.131L182.553 240.851C181.95 240.507 182.026 239.897 182.719 239.49L189.786 235.413C190.143 235.213 190.541 235.1 190.95 235.082C191.358 235.064 191.765 235.143 192.137 235.311L199.535 239.591C200.139 239.941 200.063 240.545 199.364 240.953L192.303 245.029C191.946 245.23 191.548 245.343 191.139 245.361C190.731 245.379 190.324 245.3 189.951 245.131Z" fill="#2B303F"/>
<path d="M200.419 251.173L193.014 246.899C192.411 246.549 192.487 245.939 193.186 245.538L200.247 241.455C200.605 241.256 201.005 241.144 201.415 241.127C201.824 241.111 202.232 241.19 202.605 241.36L210.003 245.633C210.606 245.983 210.53 246.594 209.837 246.995L202.77 251.078C202.413 251.277 202.014 251.389 201.606 251.405C201.197 251.422 200.791 251.342 200.419 251.173Z" fill="#2B303F"/>
<path d="M223.832 264.707L203.495 252.947C202.891 252.598 202.961 251.987 203.66 251.586L210.721 247.503C211.079 247.304 211.479 247.192 211.888 247.175C212.298 247.159 212.705 247.239 213.079 247.408L233.416 259.168C234.02 259.511 233.943 260.122 233.244 260.529L226.183 264.605C225.826 264.804 225.428 264.917 225.02 264.935C224.612 264.952 224.205 264.874 223.832 264.707Z" fill="#2B303F"/>
<path d="M85.3153 184.673L75.2228 178.841C74.5873 178.491 74.6953 177.88 75.3881 177.48L82.4553 173.403C82.8115 173.202 83.2102 173.087 83.6189 173.07C84.0276 173.052 84.4346 173.131 84.8068 173.301L94.8993 179.133C95.503 179.483 95.4268 180.094 94.734 180.494L87.6795 184.577C87.3207 184.778 86.9196 184.892 86.5088 184.908C86.098 184.925 85.689 184.844 85.3153 184.673Z" fill="#2B303F"/>
<path d="M264.812 241.029L116.196 155.169C115.561 154.825 115.669 154.215 116.368 153.808L119.902 151.773C120.258 151.573 120.657 151.459 121.065 151.442C121.474 151.424 121.88 151.502 122.253 151.671L270.869 237.531C271.472 237.881 271.396 238.485 270.697 238.892L267.17 240.946C266.81 241.143 266.41 241.253 266.001 241.268C265.591 241.282 265.184 241.2 264.812 241.029Z" fill="#2B303F"/>
<path d="M172.747 250.791C172.535 251.254 172.172 251.631 171.717 251.86L130.827 275.487C130.138 275.87 129.37 276.086 128.583 276.118C127.796 276.15 127.012 275.997 126.295 275.672L56.3853 235.292C56.0865 235.137 55.8458 234.889 55.6989 234.586C55.4447 233.95 55.8006 233.244 56.7285 232.71L97.6257 209.076C98.3141 208.693 99.0826 208.477 99.8696 208.445C100.656 208.413 101.44 208.566 102.157 208.892L172.067 249.271C172.35 249.394 172.576 249.618 172.702 249.899C172.828 250.181 172.844 250.499 172.747 250.791Z" fill="#B1B4C4"/>
<path d="M172.747 250.791C172.535 251.254 172.172 251.631 171.717 251.86L130.827 275.487C130.138 275.87 129.37 276.086 128.583 276.118C127.796 276.15 127.012 275.997 126.295 275.672L56.3853 235.292C56.0866 235.137 55.8458 234.889 55.6989 234.586C55.9156 234.128 56.2776 233.755 56.7285 233.524L97.6257 209.897C98.3138 209.513 99.082 209.296 99.8688 209.263C100.656 209.23 101.439 209.382 102.157 209.706L172.067 250.092C172.364 250.245 172.603 250.49 172.747 250.791Z" fill="#C3C6D1"/>
<path d="M276.125 234.516L127.509 148.656C127.182 148.414 126.915 148.099 126.731 147.735C126.547 147.372 126.45 146.971 126.448 146.564V144.815C126.448 144.007 126.937 143.638 127.541 143.988L276.156 229.848C276.489 230.085 276.762 230.398 276.952 230.76C277.142 231.123 277.244 231.525 277.249 231.934V233.683C277.218 234.497 276.728 234.866 276.125 234.516Z" fill="#2B303F"/>
<path d="M149.963 140.178L135.282 131.713C133.445 130.651 131.951 127.795 131.951 125.353V109.599C131.951 107.144 133.445 106.019 135.282 107.055L149.963 115.546C151.806 116.608 153.293 119.464 153.293 121.906V137.66C153.268 140.115 151.78 141.24 149.963 140.178Z" fill="#E9EAF2"/>
<path d="M149.906 104.098L135.25 95.6329C133.413 94.5707 131.92 90.2269 131.92 88.1026V69.7095C131.92 67.2545 133.413 66.1288 135.25 67.1655L149.906 75.6307C151.749 76.6928 153.236 79.5484 153.236 81.9907V100.384C153.236 102.546 151.749 105.16 149.906 104.098Z" fill="#E9EAF2"/>
<path d="M142.66 91.8105C139.68 90.0869 137.252 85.8766 137.252 82.4295C137.252 78.9824 139.68 77.5768 142.66 79.3004C145.641 81.0239 148.075 85.2342 148.075 88.6814C148.075 92.1285 145.647 93.534 142.66 91.8105ZM142.66 80.9031C140.442 79.6311 138.637 80.6678 138.637 83.2308C138.71 84.6316 139.112 85.9955 139.811 87.2112C140.51 88.427 141.487 89.4603 142.66 90.2268C144.885 91.4988 146.69 90.4685 146.69 87.9054C146.617 86.503 146.215 85.1375 145.515 83.9205C144.814 82.7035 143.836 81.6696 142.66 80.9031Z" fill="#8C50FF"/>
<path d="M144.148 89.2601L141.694 85.3551V82.1051L143.08 82.9065V85.4314L145.063 88.5796L144.148 89.2601Z" fill="#8C50FF"/>
<path d="M149.887 65.1939L135.231 56.7287C133.394 55.6602 131.901 50.8775 131.901 48.7469V31.8166C131.901 29.6924 133.394 28.8274 135.231 29.9086L149.887 38.3801C150.856 39.0114 151.663 39.8629 152.242 40.8653C152.821 41.8677 153.155 42.9926 153.217 44.1486V61.0853C153.217 63.1905 151.73 66.256 149.887 65.1939Z" fill="#E9EAF2"/>
<path d="M142.559 44.8991C141.675 44.3903 140.963 44.8037 140.963 45.8277C140.993 46.382 141.153 46.9215 141.43 47.4023C141.707 47.883 142.094 48.2915 142.559 48.5943C143.442 49.1031 144.16 48.6897 144.16 47.6721C144.129 47.1167 143.967 46.5765 143.689 46.0949C143.411 45.6133 143.024 45.2037 142.559 44.8991ZM146.823 45.5351L145.552 44.7974C145.346 44.6568 145.197 44.4469 145.133 44.2059L144.802 42.8639C144.733 42.6234 144.582 42.4143 144.376 42.2724L140.754 40.18C140.576 40.0782 140.391 40.1228 140.334 40.2881L140.004 41.2421C139.987 41.2806 139.962 41.3149 139.931 41.3421C139.899 41.3694 139.861 41.3891 139.821 41.3995C139.78 41.4099 139.738 41.4109 139.697 41.4024C139.656 41.3939 139.617 41.376 139.584 41.3502L138.313 40.6125C137.729 40.269 137.252 40.5489 137.252 41.2485V46.7944C137.272 47.1636 137.379 47.5228 137.563 47.8432C137.747 48.1635 138.004 48.4361 138.313 48.6388L146.842 53.5678C147.427 53.9049 147.91 53.6314 147.91 52.9318V47.3668C147.887 46.9945 147.777 46.6329 147.588 46.3114C147.399 45.9898 147.137 45.7173 146.823 45.516V45.5351ZM142.559 49.8472C141.784 49.3402 141.14 48.6582 140.677 47.8562C140.215 47.0541 139.947 46.1545 139.896 45.2298C139.896 43.5254 141.091 42.8385 142.559 43.6907C143.335 44.1958 143.981 44.8774 144.443 45.6798C144.906 46.4823 145.173 47.3829 145.222 48.3081C145.222 49.9871 144.033 50.6804 142.559 49.8281V49.8472ZM146.448 47.4113C146.341 47.3417 146.252 47.2478 146.188 47.1373C146.124 47.0269 146.087 46.9028 146.08 46.7753C146.08 46.5336 146.245 46.4382 146.448 46.5591C146.556 46.628 146.647 46.7216 146.712 46.8321C146.777 46.9426 146.815 47.067 146.823 47.1951C146.823 47.4177 146.658 47.5131 146.448 47.3922V47.4113Z" fill="#8C50FF"/>
<path d="M147.185 124.781C147.185 127.649 142.692 131.376 142.692 131.376C142.692 131.376 138.193 122.472 138.193 119.585C138.193 116.697 140.207 115.552 142.692 116.983C144.001 117.838 145.089 118.99 145.87 120.345C146.651 121.699 147.101 123.219 147.185 124.781Z" fill="#8C50FF"/>
<path d="M144.77 125.59C145.919 124.926 145.92 122.775 144.772 120.785C143.625 118.796 141.763 117.721 140.614 118.385C139.465 119.049 139.464 121.2 140.611 123.189C141.759 125.179 143.621 126.253 144.77 125.59Z" fill="#E9EAF2"/>
<path d="M253.639 163.354L164.911 112.086C163.411 111.228 162.203 108.906 162.203 106.915V47.2396C162.203 45.2489 163.411 44.3331 164.911 45.1981L253.639 96.4597C255.132 97.3246 256.34 99.6397 256.34 101.637V161.306C256.34 163.303 255.132 164.219 253.639 163.354Z" fill="#E9EAF2"/>
<path d="M243.388 119.973L174.615 80.2417C172.95 79.2749 171.597 76.6928 171.597 74.4731V69.9766C171.597 67.7506 172.95 66.733 174.615 67.6934L243.388 107.424C245.053 108.385 246.4 110.967 246.4 113.193V117.689C246.4 119.915 245.053 120.933 243.388 119.973Z" fill="white"/>
<path d="M205.986 118.58L174.615 100.454C172.95 99.4934 171.597 96.9112 171.597 94.6852V90.2141C171.597 87.9881 172.95 86.9705 174.615 87.9309L205.986 106.057C207.651 107.017 208.998 109.599 208.998 111.825V116.29C208.998 118.516 207.651 119.54 205.986 118.58Z" fill="#8C50FF"/>
<path d="M271.898 176.481C271.898 176.481 238.45 183.859 211.407 153.801C184.365 123.744 162.305 127.598 162.305 127.598V146.36L271.898 209.674V176.481Z" fill="url(#paint1_linear)"/>
<path d="M271.898 176.481C271.898 176.481 238.45 183.859 211.407 153.801C184.365 123.744 162.305 127.598 162.305 127.598" stroke="#CCCEDD" stroke-width="1.06" stroke-miterlimit="10"/>
<path d="M291.943 188.89L238.863 158.222C235.526 156.314 232.825 151.13 232.825 146.685V63.1078C232.825 58.6558 235.526 56.6206 238.863 58.5413L291.943 89.2156C295.273 91.1236 297.974 96.307 297.974 100.753V184.342C297.974 188.794 295.273 190.817 291.943 188.89Z" fill="#211B49"/>
<path d="M294.066 190.111L295.884 189.214L294.657 186.803L294.066 190.111Z" fill="#211B49"/>
<path d="M233.816 58.7767C234.351 58.4588 234.912 58.1885 235.494 57.9689L236.842 60.6338L233.816 58.7767Z" fill="#211B49"/>
<path d="M290.551 189.589L237.464 158.902C234.134 156.994 231.433 151.811 231.433 147.365V63.8074C231.433 59.3554 234.134 57.3139 237.464 59.2409L290.551 89.9152C293.882 91.8232 296.583 97.0003 296.583 101.446V185.023C296.583 189.468 293.882 191.516 290.551 189.589Z" fill="#2E245B"/>
<path d="M247.118 76.6673L237.464 71.0896V67.6043L247.118 73.1821V76.6673Z" fill="#A298E2"/>
<path d="M289.948 101.414L248.93 77.7104V74.2314L289.948 97.9288V101.414Z" fill="#C33AFC"/>
<path d="M247.118 87.8228L237.464 82.2451V78.7598L247.118 84.3375V87.8228Z" fill="#A298E2"/>
<path d="M276.074 104.55L248.93 88.8658V85.3805L276.074 101.064V104.55Z" fill="#F4CE2C"/>
<path d="M247.118 93.3941L237.464 87.8228V84.3375L247.118 89.9089V93.3941Z" fill="#A298E2"/>
<path d="M282.709 113.962L248.93 94.4435V90.9583L282.709 110.477V113.962Z" fill="#FF8657"/>
<path d="M247.118 98.9718L237.464 93.3941V89.9088L247.118 95.4866V98.9718Z" fill="#A298E2"/>
<path d="M272.457 113.613L248.93 100.021V96.536L272.457 110.127V113.613Z" fill="#A298E2"/>
<path d="M247.118 82.245L237.464 76.6673V73.182L247.118 78.7598V82.245Z" fill="#A298E2"/>
<path d="M269.439 95.1431L248.93 83.2881V79.8028L269.439 91.6515V95.1431Z" fill="#4D3BFF"/>
<path d="M247.118 104.55L237.464 98.9719V95.4866L247.118 101.064V104.55Z" fill="#A298E2"/>
<path d="M260.992 112.563L248.93 105.593V102.107L260.992 109.078V112.563Z" fill="#C33AFC"/>
<path d="M247.118 115.699L237.464 110.127V106.642L247.118 112.22V115.699Z" fill="#A298E2"/>
<path d="M286.935 138.703L248.93 116.748V113.263L286.935 135.217V138.703Z" fill="#F4CE2C"/>
<path d="M247.118 121.276L237.464 115.699V112.213L247.118 117.791V121.276Z" fill="#A298E2"/>
<path d="M260.388 128.947L248.93 122.326V118.84L260.388 125.461V128.947Z" fill="#FF8657"/>
<path d="M247.118 126.854L237.464 121.276V117.791L247.118 123.369V126.854Z" fill="#A298E2"/>
<path d="M282.709 147.416L248.93 127.897V124.418L282.709 143.931V147.416Z" fill="#A298E2"/>
<path d="M247.118 110.127L237.464 104.55V101.064L247.118 106.642V110.127Z" fill="#A298E2"/>
<path d="M280.897 129.646L248.93 111.17V107.685L280.897 126.161V129.646Z" fill="#4D3BFF"/>
<path d="M247.118 132.432L237.464 126.854V123.369L247.118 128.947V132.432Z" fill="#A298E2"/>
<path d="M253.15 135.917L248.93 133.475V129.99L253.15 132.432V135.917Z" fill="#C33AFC"/>
<path d="M247.118 143.581L237.464 138.01V134.524L247.118 140.102V143.581Z" fill="#A298E2"/>
<path d="M256.772 149.159L248.93 144.63V141.145L256.772 145.673V149.159Z" fill="#F4CE2C"/>
<path d="M247.118 149.159L237.464 143.581V140.096L247.118 145.673V149.159Z" fill="#A298E2"/>
<path d="M269.439 162.057L248.93 150.208V146.723L269.439 158.571V162.057Z" fill="#FF8657"/>
<path d="M247.118 154.736L237.464 149.159V145.673L247.118 151.251V154.736Z" fill="#A298E2"/>
<path d="M281.501 174.605L248.93 155.779V152.294L281.501 171.12V174.605Z" fill="#A298E2"/>
<path d="M247.118 138.01L237.464 132.432V128.947L247.118 134.524V138.01Z" fill="#A298E2"/>
<path d="M289.948 162.756L248.93 139.053V135.567L289.948 159.265V162.756Z" fill="#4D3BFF"/>
<path d="M22.9303 125.792L17.1342 122.815L4.98892 129.811C2.23702 131.401 -9.15527e-05 130.117 -9.15527e-05 126.93V113.689C0.0938031 111.956 0.594459 110.27 1.46127 108.767C2.32808 107.265 3.53664 105.987 4.98892 105.039L77.3201 63.235C80.072 61.645 82.3092 62.9361 82.3092 66.1161V79.4021C82.2153 81.1348 81.7146 82.8209 80.8478 84.3237C79.981 85.8265 78.7724 87.1037 77.3201 88.0517L28.6883 116.125" fill="#B1B4C4"/>
<path d="M80.4979 62.7198L83.2307 63.8265L80.9173 66.2051L79.2776 63.5785L80.4979 62.7198Z" fill="#B1B4C4"/>
<path d="M22.9303 125.792L25.8093 126.949L25.8157 124.469L23.2672 123.96L22.9303 125.792Z" fill="#B1B4C4"/>
<path d="M4.81098 131.554C4.91902 131.783 1.69046 130.46 1.57606 130.282C1.46166 130.104 5.49101 127.738 5.49101 127.738L4.81098 131.554Z" fill="#B1B4C4"/>
<path d="M31.5674 117.276L80.1992 89.1838C81.6504 88.2347 82.8581 86.9572 83.7248 85.4546C84.5915 83.952 85.0928 82.2665 85.1882 80.5342V67.2736C85.1882 64.0936 82.9511 62.8216 80.1992 64.3862L7.84253 106.19C6.39095 107.139 5.18293 108.417 4.31621 109.919C3.44949 111.422 2.94841 113.108 2.85352 114.84V128.101C2.85352 131.281 5.09063 132.553 7.84253 130.982L19.9878 123.986L25.8093 126.969L31.5674 117.276Z" fill="#E9EAF2"/>
<path d="M78.6993 75.9232L9.34241 115.991V111.38L78.6993 71.3058V75.9232Z" fill="#8C50FF"/>
<path d="M54.752 97.8334L9.34241 124.068V119.451L54.752 93.2161V97.8334Z" fill="#8C50FF"/>
<defs>
<linearGradient id="paint0_linear" x1="204.141" y1="175.14" x2="257.014" y2="83.2074" gradientUnits="userSpaceOnUse">
<stop offset="0.21" stop-color="white" stop-opacity="0"/>
<stop offset="1" stop-color="white" stop-opacity="0.2"/>
</linearGradient>
<linearGradient id="paint1_linear" x1="217.822" y1="143.529" x2="203.534" y2="168.371" gradientUnits="userSpaceOnUse">
<stop stop-color="#E9EAF2" stop-opacity="0.8"/>
<stop offset="1" stop-color="#E9EAF2" stop-opacity="0"/>
</linearGradient>
</defs>
</svg>
