<svg width="47" height="46" viewBox="0 0 47 46" fill="none" xmlns="http://www.w3.org/2000/svg">
<path d="M0.5 0H46.4562V45.9562H0.5V0ZM42.6917 34.9957C42.3566 32.8989 40.9913 31.1373 36.9414 29.4943C35.5321 28.8337 33.9657 28.3741 33.5004 27.3114C33.3262 26.6795 33.2994 26.3348 33.4123 25.9614C33.6996 24.7245 35.1644 24.353 36.3133 24.6977C37.0601 24.9274 37.7495 25.5019 38.1822 26.421C40.1622 25.1266 40.1622 25.1266 41.5428 24.2668C41.0257 23.4626 40.7692 23.116 40.4207 22.7732C39.2143 21.4233 37.6077 20.7339 34.994 20.7933L33.644 20.9637C32.3496 21.2797 31.1164 21.969 30.3696 22.8881C28.1867 25.3602 28.8167 29.6686 31.4592 31.4494C34.0729 33.4025 37.895 33.8315 38.3833 35.6716C38.8428 37.912 36.7174 38.6301 34.6187 38.3715C33.0657 38.0269 32.206 37.2494 31.2581 35.8133L27.754 37.8258C28.1561 38.7449 28.6156 39.1451 29.305 39.9494C32.6368 43.3118 40.9664 43.1395 42.4619 38.0269C42.5174 37.8545 42.9214 36.6769 42.6036 34.8674L42.6917 34.9957ZM25.4906 21.1226H21.1861C21.1861 24.8336 21.1688 28.5216 21.1688 32.2383C21.1688 34.5974 21.2895 36.7631 20.9046 37.4294C20.2727 38.7488 18.6451 38.5803 17.9059 38.3486C17.1476 37.9733 16.7628 37.4563 16.3166 36.7114C16.196 36.5103 16.106 36.3361 16.0734 36.3361L12.5788 38.4903C13.1629 39.6966 14.015 40.7345 15.1141 41.3951C16.7513 42.3717 18.9514 42.6876 21.255 42.1706C22.7543 41.7378 24.0468 40.8474 24.7228 39.4688C25.6993 37.6879 25.4925 35.505 25.483 33.0617C25.5059 29.1286 25.483 25.1936 25.483 21.2299L25.4906 21.1226Z" fill="url(#paint0_linear)"/>
<defs>
<linearGradient id="paint0_linear" x1="0.5" y1="22.9781" x2="46.4562" y2="22.9781" gradientUnits="userSpaceOnUse">
<stop stop-color="#4776E6"/>
<stop offset="1" stop-color="#8E54E9"/>
</linearGradient>
</defs>
</svg>
